<svg xmlns="http://www.w3.org/2000/svg" xmlns:xlink="http://www.w3.org/1999/xlink" width="100" height="100" viewBox="0 0 100 100"><rect width="100%" height="100%" fill="#ffffff"></rect><g transform="translate(50 50) scale(0.69 0.69) rotate(0) translate(-50 -50)" style="fill:#0066cc"><svg fill="#0066cc" xmlns="http://www.w3.org/2000/svg" viewBox="0 0 64 64" x="0px" y="0px"><g><circle cx="41" cy="22" r="2"></circle><circle cx="45" cy="38" r="3"></circle><path d="M23,34a5,5,0,1,0-5-5A5.006,5.006,0,0,0,23,34Zm1-4h2v2H24Zm-3-3h2v2H21Z"></path><rect x="17" y="58" width="30" height="2"></rect><path d="M18,4H5A1,1,0,0,0,4,5v5H18ZM8,8H6V6H8Zm4,0H10V6h2Zm4,0H14V6h2Z"></path><polygon points="27.535 52 24.868 56 39.132 56 36.465 52 27.535 52"></polygon><path d="M59,4H20v6H60V5A1,1,0,0,0,59,4Z"></path><path d="M4,49a1,1,0,0,0,1,1H59a1,1,0,0,0,1-1V12H4Zm11-7H13V40h2Zm15,1H28V41h2Zm6-8H34V33h2Zm20,7h2v5a1,1,0,0,1-1,1H52V46h4ZM49,27h2v2H49Zm.293,5.293,1.414,1.414-1.54,1.54A4.961,4.961,0,0,1,49.9,37H52v2H49.9a4.961,4.961,0,0,1-.732,1.753l1.54,1.54-1.414,1.414-1.54-1.54A4.961,4.961,0,0,1,46,42.9V45H44V42.9a4.961,4.961,0,0,1-1.753-.732l-1.54,1.54-1.414-1.414,1.54-1.54A4.961,4.961,0,0,1,40.1,39H38V37h2.1a4.961,4.961,0,0,1,.732-1.753l-1.54-1.54,1.414-1.414,1.54,1.54A4.961,4.961,0,0,1,44,33.1V31h2v2.1a4.961,4.961,0,0,1,1.753.732ZM35,21h2.142a3.915,3.915,0,0,1,.425-1.019l-1.274-1.274,1.414-1.414,1.274,1.274A3.915,3.915,0,0,1,40,18.142V16h2v2.142a3.915,3.915,0,0,1,1.019.425l1.274-1.274,1.414,1.414-1.274,1.274A3.915,3.915,0,0,1,44.858,21H47v2H44.858a3.915,3.915,0,0,1-.425,1.019l1.274,1.274-1.414,1.414-1.274-1.274A3.915,3.915,0,0,1,42,25.858V28H40V25.858a3.915,3.915,0,0,1-1.019-.425l-1.274,1.274-1.414-1.414,1.274-1.274A3.915,3.915,0,0,1,37.142,23H35Zm-4-5h2v2H31ZM15.707,20.293,18.816,23.4A6.947,6.947,0,0,1,22,22.08V18h2v4.08A6.947,6.947,0,0,1,27.184,23.4l3.109-3.109,1.414,1.414L28.6,24.816A6.947,6.947,0,0,1,29.92,28H34v2H29.92A6.947,6.947,0,0,1,28.6,33.184l3.109,3.109-1.414,1.414L27.184,34.6A6.947,6.947,0,0,1,24,35.92V40H22V35.92A6.947,6.947,0,0,1,18.816,34.6l-3.109,3.109-1.414-1.414L17.4,33.184A6.947,6.947,0,0,1,16.08,30H12V28h4.08A6.947,6.947,0,0,1,17.4,24.816l-3.109-3.109ZM6,15a1,1,0,0,1,1-1h5v2H8v6H6Zm0,9H8v2H6Z"></path></g></svg></g></svg>